<svg width="1200" height="1200" viewBox="0 0 1200 1200" fill="none" xmlns="http://www.w3.org/2000/svg">
<path d="M198.829 438.241C198.829 438.241 79.112 384.621 170.454 286.947C170.454 286.947 318.64 151.354 413.157 113.476C413.157 113.476 479.5 82.037 526.769 160.746C526.769 160.746 649.644 378.361 665.408 576.92C665.408 576.92 674.889 611.583 627.53 652.503C627.53 652.503 561.366 690.381 517.222 684.031C517.222 684.031 268.196 494.947 198.829 438.241Z" fill="#FDFDFD"/>
<path d="M589.848 148.397C589.848 148.397 709.374 305.779 715.332 561.485C715.332 561.485 833.486 520.605 874.255 550.918C874.255 550.918 974.08 148.397 772.907 142.35L589.848 148.397Z" fill="#FDFDFD"/>
<path d="M943.968 243.676C943.968 243.676 989.345 339.004 940.944 526.609C940.944 526.609 1013.5 518.999 1064.99 544.787C1064.99 544.787 1173.88 594.751 1145.18 422.193C1145.18 422.193 1099.74 287.601 943.968 243.676Z" fill="#FDFDFD"/>
<path d="M125.62 445.46C125.62 445.46 251.821 538.129 469.868 706.167C469.868 706.167 390.656 802.71 404.964 851.588C404.964 851.588 -7.18902 806.055 56.735 615.146L125.62 445.46Z" fill="#FDFDFD"/>
<path d="M92.699 810.668C92.699 810.668 166.389 886.246 359.169 905.644C359.169 905.644 326.969 971.22 333.296 1028.36C333.296 1028.36 342.514 1147.83 190.636 1061.24C190.636 1061.24 79.874 972.093 92.699 810.668Z" fill="#FDFDFD"/>
</svg>
